<?xml version="1.0" standalone="no"?>
<!DOCTYPE svg PUBLIC "-//W3C//DTD SVG 20010904//EN"
 "http://www.w3.org/TR/2001/REC-SVG-20010904/DTD/svg10.dtd">
<svg version="1.0" xmlns="http://www.w3.org/2000/svg"
 width="1200.000000pt" height="1200.000000pt" viewBox="0 0 1200.000000 1200.000000"
 preserveAspectRatio="xMidYMid meet">
<metadata>
Created by potrace 1.14, written by Peter Selinger 2001-2017
</metadata>
<g transform="translate(0.000000,1200.000000) scale(0.100000,-0.100000)"
fill="#000000" stroke="none">
<path d="M5809 8426 c-2 -2 -38 -7 -79 -10 -289 -26 -614 -128 -892 -278 -91
-49 -330 -206 -348 -227 -3 -4 -30 -26 -60 -50 -183 -147 -438 -453 -552 -661
-71 -130 -155 -311 -173 -370 -1 -3 -14 -43 -29 -90 -27 -83 -69 -251 -80
-320 -3 -19 -8 -46 -11 -60 -27 -138 -28 -508 -2 -706 l4 -31 -896 -1 c-493 0
-904 -1 -914 -1 -17 -1 -17 -2 0 -28 10 -16 23 -35 30 -43 7 -8 64 -89 126
-180 63 -91 124 -177 136 -191 l21 -27 -46 -63 c-25 -35 -99 -140 -164 -234
l-119 -170 1094 -5 1094 -5 52 -75 c333 -477 846 -830 1402 -965 230 -55 320
-65 602 -61 132 2 249 6 260 9 11 2 47 8 80 12 32 3 62 8 65 10 3 1 25 6 50 9
25 3 60 10 78 15 18 5 35 10 37 10 24 2 131 33 220 63 266 90 571 264 800 457
120 102 314 319 405 454 l45 66 1097 3 1097 3 -164 233 -163 233 106 152 c58
84 108 154 112 157 7 7 110 158 110 162 0 2 -412 3 -915 2 -665 -1 -915 2
-915 10 0 6 5 43 11 81 13 91 18 379 8 475 -19 174 -24 200 -46 222 -46 45
-132 14 -133 -47 -2 -144 -196 -490 -387 -691 l-48 -51 -967 0 -968 0 -15 56
c-23 79 -23 80 -31 136 -12 91 -11 250 2 339 20 140 59 246 127 347 65 96 116
119 268 124 136 4 237 -22 300 -77 54 -48 59 -82 29 -196 -59 -224 54 -437
261 -490 171 -44 415 87 532 286 87 148 92 367 12 522 -21 41 -20 42 33 35
181 -27 317 29 392 160 67 116 58 272 -23 406 -46 77 -98 131 -176 184 -58 39
-231 122 -231 110 0 -3 -11 0 -25 5 -65 25 -309 31 -603 16 -166 -8 -293 -9
-332 -2 -14 3 -47 7 -75 11 -118 14 -235 75 -235 123 0 46 78 91 150 87 35 -2
45 -4 130 -26 60 -15 162 -4 216 22 108 52 167 153 168 284 1 67 -3 89 -26
137 -44 89 -130 142 -265 162 -21 4 -50 9 -63 11 -14 3 -47 8 -75 11 -27 4
-54 9 -58 11 -10 6 -452 15 -458 9z m446 -166 c28 -4 73 -11 100 -14 180 -24
234 -56 243 -144 6 -68 -25 -127 -80 -152 -23 -10 -50 -17 -62 -15 -12 2 -37
6 -56 9 -19 3 -49 10 -65 14 -54 16 -157 11 -222 -10 -154 -51 -220 -195 -149
-324 15 -27 47 -64 71 -82 49 -37 168 -87 230 -96 155 -23 343 -27 550 -11
333 25 499 5 648 -78 263 -147 284 -478 32 -489 -91 -4 -261 50 -399 127 -117
64 -132 69 -167 48 -61 -36 -52 -111 17 -153 135 -81 253 -220 285 -332 19
-66 19 -69 20 -131 1 -131 -63 -249 -177 -329 -123 -87 -241 -93 -310 -16 -61
66 -74 155 -42 283 31 125 5 227 -79 306 -91 87 -248 132 -436 125 -122 -4
-183 -17 -294 -62 -108 -43 -183 -85 -256 -140 l-57 -44 -25 53 c-24 50 -110
146 -172 193 -15 11 -86 56 -156 99 -140 85 -197 132 -197 161 1 34 54 98 99
121 73 37 123 13 195 -95 114 -172 259 -243 406 -199 191 56 267 317 147 499
-52 78 -161 153 -236 163 -42 5 -81 -33 -81 -79 0 -41 5 -47 85 -90 114 -61
155 -168 105 -271 -32 -66 -96 -83 -168 -46 -45 23 -83 63 -146 154 -77 111
-151 152 -268 149 -169 -3 -329 -194 -295 -352 7 -31 37 -78 74 -114 38 -36
71 -59 249 -170 160 -99 218 -163 227 -254 8 -81 -29 -122 -112 -122 -66 0
-143 43 -256 144 -55 49 -101 70 -162 72 -67 3 -132 -37 -162 -100 -50 -102
-6 -162 201 -275 124 -67 157 -87 237 -140 128 -85 183 -163 187 -264 3 -70
-8 -106 -42 -138 -24 -23 -33 -24 -159 -25 -126 -2 -134 -1 -158 22 -14 13
-33 47 -42 76 -34 100 -104 178 -226 251 -110 65 -233 92 -333 74 -91 -16
-144 -55 -200 -144 -53 -86 -39 -156 45 -234 l50 -46 -278 1 -278 1 -7 55
c-27 220 -29 509 -3 635 3 11 7 36 10 55 36 246 148 553 285 783 205 345 517
648 857 834 210 114 502 220 687 247 21 4 41 8 45 10 3 2 44 7 91 11 47 3 87
8 89 11 7 7 395 2 446 -6z"/>
<path d="M7112 8189 c-44 -9 -104 -50 -123 -85 -34 -62 -14 -182 37 -225 9 -7
27 -37 41 -66 61 -128 214 -184 344 -126 50 22 104 79 126 132 20 46 19 136
-1 182 -24 57 -125 141 -185 154 -9 2 -32 9 -51 15 -33 10 -69 17 -130 24 -14
1 -40 -1 -58 -5z m183 -184 c93 -32 124 -85 83 -144 -13 -18 -28 -25 -65 -28
-57 -4 -71 5 -108 72 -15 28 -39 62 -53 77 -52 56 14 66 143 23z"/>
<path d="M7621 6567 c-44 -14 -107 -79 -117 -120 -10 -44 -10 -56 -1 -97 5
-19 10 -66 12 -105 2 -38 9 -83 16 -100 7 -16 13 -33 13 -38 1 -4 20 -27 44
-51 121 -123 317 -87 398 74 54 107 27 210 -85 321 -108 107 -194 143 -280
116z m152 -234 c66 -63 83 -103 62 -143 -28 -55 -85 -66 -131 -26 -26 21 -28
30 -29 97 -1 41 -5 87 -9 103 -6 20 -5 31 5 36 15 10 35 -3 102 -67z"/>
</g>
</svg>
